<?xml version="1.0" encoding="utf-8"?>
<!-- Generator: Adobe Illustrator 27.0.0, SVG Export Plug-In . SVG Version: 6.00 Build 0)  -->
<svg version="1.1" id="Livello_1" xmlns="http://www.w3.org/2000/svg" xmlns:xlink="http://www.w3.org/1999/xlink" x="0px" y="0px"
	 viewBox="0 0 712 237" style="enable-background:new 0 0 712 237;" xml:space="preserve">
<style type="text/css">
	.st0{fill:#FFFFFF;}
</style>
<g id="_x23_000000ff">
	<path class="st0" d="M2.2,3.2c14.8-0.1,29.6,0,44.4,0C68.9,47.4,91.1,91.7,113.3,136c22.1-44.3,44.4-88.6,66.6-132.8
		c14.9,0,29.7,0,44.6,0c-37,73.9-74.3,147.7-111.2,221.7C76.4,151,39,77.2,2.2,3.2z"/>
	<path class="st0" d="M533.4,6.5c3.9-1.1,4.7,6.1,0.6,5.6C530.7,12.5,530.2,7.1,533.4,6.5z"/>
	<path class="st0" d="M355,7.1c6.2-0.1,12.4-0.1,18.6,0c-2,0.8-4.1,1.3-6.1,2.3c-1.3,7.4-0.6,15.1-0.5,22.6
		c-0.1,3.9,1.7,8.2,5.8,9.4c4.6,1.2,10.3,0.9,13.9-2.7c3.2-3,2.5-7.8,2.7-11.8c-0.2-5.5,0.6-11.2-0.7-16.6c-1.6-1.3-3.6-2.1-5.4-3.3
		c4.5,0,9,0,13.5,0c-2.2,1.7-6.2,2.4-6,5.9c-0.4,7,0.2,14.1-0.3,21.2c-0.4,4.7-4.6,8.3-9,9.4c-3.5,0.7-7.1,0.7-10.5,0.1
		c-4.3-0.8-8.6-4-9.1-8.6c-1.1-8.4,0.4-16.9-0.9-25.3C359.3,8.4,357,8.1,355,7.1z"/>
	<path class="st0" d="M431.3,7.1c1.2-0.9,3.1-0.9,3.9,0.5c2,1.6-0.1,4.8-2.2,4.5C430.2,12.6,429.3,8.3,431.3,7.1z"/>
	<path class="st0" d="M564.4,9c-0.4-2.5,2.3-2.4,3.5-1c2.4,2.7,4.2,6,6,9.2C570.5,14.7,566.9,12.4,564.4,9z"/>
	<path class="st0" d="M549.7,13.7c0.1,2.5,0.1,5.1,0.1,7.6c2.6,0.1,5.2,0.2,7.8,0.7c-2.5,0.6-5.2,0.8-7.8,0.9
		c0.2,5.9-0.6,11.9,0.5,17.7c1.8,3.1,5.3,0.3,7.7-0.7c-1.4,1.6-2.6,3.8-4.9,4c-2.9,0.8-6.4-0.8-6.9-4c-0.7-5.7-0.2-11.5-0.3-17.2
		c-0.9-0.1-2.8-0.2-3.7-0.2C546,20.9,548.3,17.6,549.7,13.7z"/>
	<path class="st0" d="M406.4,24.5c3.1-2.6,7.4-5.2,11.6-3.4c2.6,0.6,3.7,3.5,3.8,5.9c0.2,4.8,0,9.7,0.3,14.5
		c0.8,0.2,2.5,0.6,3.4,0.8l-0.1,1.2c-4,0-8.1,0.1-12.1-0.2c1.5-0.8,3-1.7,4.5-2.5c0.4-4.9,0.4-9.9,0-14.8c-0.2-2.6-3.3-4.5-5.8-3.5
		c-2.2,0.7-4.2,2.2-5.3,4.2c-0.6,4.9-0.2,9.9-0.1,14.9c1.2,0.2,2.4,0.5,3.6,0.7l0,1.3c-3.8,0-7.6,0-11.4,0l0-1.2
		c1.2-0.3,2.4-0.6,3.7-0.9c0.2-5.8,0.3-11.6,0-17.4c-1.4-0.6-2.9-1.1-4.3-1.7c2.6-0.7,5.3-1.3,7.9-1.8
		C406.1,21.4,406.3,23.4,406.4,24.5z"/>
	<path class="st0" d="M426.3,22.7c3-0.9,6.2-1.5,9.3-2.3c0.2,6.8-0.3,13.7,0.2,20.5c1.1,0.6,2.3,1.2,3.5,1.7l0,0.8
		c-4.4,0-8.7,0.1-13-0.3c1.7-0.7,3.4-1.5,5-2.2c0.5-5.7,0.4-11.4-0.1-17.1C429.5,23.5,427.9,23.1,426.3,22.7z"/>
	<path class="st0" d="M471.4,22.3c3.6-2.4,8.7-2.5,12.1,0.2c1.9,1.7,2.6,4.2,3.4,6.5c-5.4,0-10.7,0-16.1,0
		c0.2,4.8,0.1,11.6,5.5,13.5c4.3,1.7,7.6-2.6,10.7-4.8c-2.1,6.9-11.7,8.5-16.7,3.9C464.6,36.7,465.4,26.6,471.4,22.3 M471,27.6
		c3.9,0.1,7.8,0.2,11.6,0c-0.9-2.5-2.2-6.3-5.6-5.9C473.5,21.4,472.1,25.1,471,27.6z"/>
	<path class="st0" d="M497.9,24.8c2.2-2,5-5.2,8.3-4c2,0.5,2.5,2.7,2.4,4.5c-2.6,1.5-3.8-1.6-5.7-2.9c-2.1,1.2-4.3,3.1-4.6,5.6
		c-0.5,4.5-0.2,9-0.1,13.5c1.3,0.2,2.6,0.5,3.9,0.7l0,1.2c-4.4,0-8.8,0.2-13.1-0.4c1.6-0.7,3.2-1.3,4.9-1.9
		c0.2-5.6,0.7-11.3-0.2-16.9c-1.4-0.7-2.9-1.2-4.3-1.7c2.5-0.7,5-1.4,7.6-2C497.3,22,497.6,23.4,497.9,24.8z"/>
	<path class="st0" d="M457.4,21.8c3-0.3,6.1-0.3,9.2-0.3c-1.6,1.5-3.5,2.8-4.5,4.8c-3.2,6.2-5.5,12.9-9.1,18.9
		c-3.8-6-5.9-12.8-9-19.1c-1-1.8-2.6-3.1-4-4.6c3.6,0,7.2,0,10.9,0c-1.1,0.8-2.2,1.7-3.2,2.5c1.8,5.5,4.6,10.6,6.9,15.8
		c2.4-5.2,5.1-10.4,6.8-15.9C460.2,23.4,458.3,22.3,457.4,21.8z"/>
	<path class="st0" d="M513.2,30.8c-3-2.7-1.9-8.5,2-9.9c2.4-1.2,4.9,0.4,7.2,1.1c0.5-0.4,1.4-1.2,1.9-1.6c0,2.7,0,5.3-0.1,8
		c-1.8-2.6-3.2-7.2-7.2-6.7c-2.6,0.1-2.7,3.1-3.4,4.9c3,2,6.4,3.5,9.4,5.4c3.9,2.5,3.8,9.3-0.5,11.4c-3,1.5-6.3,0.1-9.1-1.2
		c-0.7,0.8-1.3,1.5-2,2.3c-0.1-2.8-0.1-5.5,0.1-8.3c1.3,1.8,2.3,3.8,3.8,5.3c1.5,1.5,3.8,1.3,5.8,1.7c1-2,3-4.6,1-6.7
		C519.5,34.2,515.8,33.3,513.2,30.8z"/>
	<path class="st0" d="M528.6,22c2.6-0.4,5.3-0.8,7.9-1.4c0.2,6.8-0.5,13.7,0.3,20.5c1.1,0.6,2.3,1.1,3.5,1.5l0,0.9
		c-4.4,0-8.8,0.2-13.2-0.4c1.7-0.6,3.5-1.3,5.2-1.8c0.2-5.8,0.3-11.7-0.2-17.5c-1.4-0.2-2.8-0.4-4.2-0.6
		C528.1,22.9,528.4,22.3,528.6,22z"/>
	<path class="st0" d="M560.1,26.5c0.1-3.6,3.8-5.6,7-5.9c3.6-0.5,8.5,0.1,10.2,3.8c1.1,5.5-0.4,11.2,0.8,16.6
		c0.4,0.3,1.3,0.8,1.8,1.1c1-1.2,2-2.3,3-3.5c-0.9,2-1,5.3-4,5.1c-2.6,0.7-4.3-1.5-5.8-3c-3.2,1.9-7,4-10.9,2.7
		c-3.1-1-3.7-5.5-1.6-7.7c2.7-2.9,6.6-4.2,10-6.1c0.6,0.4,1.2,0.8,1.8,1.2c-3.2,0.8-6.6,2.3-8.3,5.4c-1,1.7-0.4,4.1,1.2,5.2
		c3,1.2,5.7-1.2,8.2-2.5c0-2.8,0-5.6,0.3-8.4c-0.6-0.6-1.1-1.2-1.7-1.8l1.8,0.1c0-3.1-1.1-7.5-5.1-7.1c-3-0.6-4.4,2-5.6,4.2
		C562.8,27.5,561.4,27.7,560.1,26.5z"/>
	<path class="st0" d="M264.5,47.7c4.8-0.7,9.8-0.5,14.2,1.7c10.1,4.5,15.5,17.3,11.4,27.6c-3.4,10.1-14.8,16.5-25.2,14.2
		c-8.1-1.2-15-7.6-17.2-15.4c-1-4.1-1-8.5,0-12.7C249.9,55.4,256.6,49.3,264.5,47.7z"/>
	<path class="st0" d="M371.6,66.2c2.6-0.4,5.1-0.8,7.7-1.2c0.2,11.7-0.3,23.4,0.3,35.1c1.5,0.4,2.9,0.9,4.4,1.3
		c-2.7,0.6-5.4,1.1-8.1,1.4c0-0.9,0-2.8-0.1-3.8c-3.5,2.9-8.3,4.9-12.7,2.8c-7.7-3.7-8.7-15.6-2-20.7c4.1-3.5,10.2-2.3,14.4,0.5
		c-0.1-3.9,0.2-7.9-0.2-11.8c0.2-2.1-2.2-2.3-3.6-3.2L371.6,66.2 M361.2,90c-0.1,3.8,0.8,8.4,4.4,10.5c3.3,1.5,7.3,0.2,9.5-2.6
		c0.8-4.7,0.2-9.5,0.4-14.3c-2.8-1.6-6-3.7-9.4-2.4C362.6,82.5,361.3,86.5,361.2,90z"/>
	<path class="st0" d="M434.1,66.5c2.8-0.5,5.6-1,8.3-1.4c0.1,11-0.1,22,0.1,33c-0.5,2.3,2.4,2.3,3.8,3.3l0.2,0.7c-4,0-8,0-12,0
		l0-1.1c1.3-0.2,2.6-0.5,3.9-0.8c0.3-10.6,0.4-21.2-0.1-31.7C436.9,67.7,435.5,67.1,434.1,66.5z"/>
	<path class="st0" d="M452.5,65.3c1.8-0.7,4.3,0.4,3.9,2.6c0.3,2.3-2.9,4-4.6,2.2C450,69.1,450.4,65.8,452.5,65.3z"/>
	<path class="st0" d="M482.3,66.2c4.5-2.7,10.3-1.1,14.1,2.1c0.7-1.2,1.4-2.5,2.1-3.7c0.3,3.8,0.3,7.5,0.1,11.3
		c-2.2-3.7-3.9-8.6-8.7-9.4c-4.8-1.9-10.1,3.5-7.4,8.2c4.3,5.3,11.9,5.7,16.8,10.2c2.8,2.8,3.2,7.1,2.3,10.7
		c-1.6,4.7-6.8,7.5-11.6,7.1c-3.6,0.1-6.6-2.1-9.3-4.2c-0.8,1.2-1.6,2.4-2.5,3.6c-0.3-4.3-0.3-8.7,0.1-13c2.3,4.8,4.1,11.9,10.6,12
		c5.3,1.3,11.3-4.5,8.6-9.7c-4.1-6-12.8-5.9-17.4-11.4C476.8,75.9,477.5,68.9,482.3,66.2z"/>
	<path class="st0" d="M565.4,66.3c2.8-0.4,5.6-0.8,8.3-1.2c0.1,11-0.1,22,0.1,33c-0.4,2.6,2.9,2.6,4.4,3.7c-2.7,0.3-5.4,0.7-8,1.1
		c0-0.9-0.1-2.6-0.1-3.5c-3.6,2.7-8.5,4.7-12.8,2.5c-7.8-4-8.4-16.8-0.8-21.3c4.1-2.8,9.5-1.3,13.3,1.2c-0.2-4.4,0.2-8.9-0.3-13.2
		C568.2,67.6,566.8,67,565.4,66.3 M559.5,81.6c-3.9,2.3-4.1,7.4-3.8,11.4c0.1,3.6,2.4,7.6,6.3,8c3,0.5,5.4-1.5,7.7-3
		c0-4.9,0-9.7,0-14.6C566.7,81.7,562.9,79.5,559.5,81.6z"/>
	<path class="st0" d="M582.5,65.5c1.2-0.4,2.7-0.7,3.8,0.2c2.2,1.5,0.5,5.4-2.1,5.1C581.7,70.8,580.6,67.1,582.5,65.5z"/>
	<path class="st0" d="M505.3,81c3.7-1.8,6.3-4.9,7.7-8.7c0,2.5,0,5,0,7.5c2.6,0.1,5.3,0.2,7.9,0.9c-2.6,0.5-5.2,0.5-7.9,0.6
		c0.2,5.8-0.5,11.7,0.4,17.4c1,3.9,5.4,0.8,7.8,0.2c-1.9,2-4.1,4.5-7.2,3.8c-3.4,0.1-5-3.6-4.9-6.6c-0.2-5-0.1-9.9-0.1-14.9
		C508.1,81.2,506.2,81.1,505.3,81z"/>
	<path class="st0" d="M391.3,80.3c2.5-1.5,5.6-1.4,8.3-0.8c3.5,1,5.2,4.6,6.3,7.8c-5.3,0.1-10.6,0-15.8,0.1
		c0.2,4.7-0.4,11.6,4.9,13.6c4.5,1.6,7.9-2,10.9-4.5c-2,6.5-10.7,8.4-15.8,4.4C383.4,96,384.2,84.3,391.3,80.3 M390,86.2
		c3.8,0.1,7.6,0.1,11.4,0c-0.6-2.5-1.6-5.7-4.7-5.8C393,79.7,391,83.3,390,86.2z"/>
	<path class="st0" d="M410.4,88c-0.8-4.8,3.9-9.1,8.6-8.9c2.7-0.3,5.2,1,7.5,2.2c1.9-1,3.9-2.6,6.1-1.8c1.4,0.9,1.5,2.4,1.3,3.9
		c-1.9-1.2-4.6-0.5-6.2-2.3c1,4.2,2,9.6-2.1,12.6c-4.2,2.6-9.9,1.2-13.9,4.3c5,2.8,10.9,1.4,16.1,3.2c4.9,2.3,4.8,10.3,0,12.6
		c-4,1.8-8.6,1.6-12.9,0.9c-3.3-0.7-6.7-3.9-5.8-7.4c0.8-1.5,2.3-2.3,3.5-3.3c-0.3,2-0.8,4-0.9,6c0.5,2.1,2.5,3.3,4.4,3.9
		c3.9,1,8.5,0.8,11.5-2.2c1.4-1.9,1.4-5.3-0.8-6.6c-5-2-11-0.5-15.6-3.4c-2.4-2.8,0.6-5.8,3.1-7.1C412.8,92.6,410.4,90.8,410.4,88
		 M417,81c-3,1.8-2.7,5.9-2.4,9c0.1,3,3.4,5.1,6.2,4.2c3.7-1.2,3.9-5.9,3.5-9.2C424.1,81.6,420.1,79.2,417,81z"/>
	<path class="st0" d="M447.3,80.8c2.9-0.7,5.9-1.2,8.8-1.9c0.2,6.9-0.4,13.9,0.3,20.9c1.1,0.6,2.3,0.9,3.5,1.5l0.1,0.8
		c-4,0-8,0-12-0.1l0-1.1c1.3-0.3,2.7-0.6,4.1-0.9c0.1-5.6,0.5-11.3-0.2-16.9C450.6,82,448.8,81.7,447.3,80.8z"/>
	<path class="st0" d="M577.8,81.1c3-0.8,6-1.5,9-2.2c0.2,6.4-0.2,12.8,0.2,19.2c-0.4,2.2,2.2,2.4,3.5,3.2l0.2,0.6c-4,0-8,0-12,0
		l0.2-0.8c1.5-0.7,4.2-0.9,4-3.2c0.3-5.2,0.4-10.5-0.5-15.7C581.3,82,579,81.4,577.8,81.1z"/>
	<path class="st0" d="M521.3,80c2.7,0,5.3,0,8,0c0.2,6.2-0.5,12.5,0.4,18.6c1.4,3.5,6.4,2.4,8.5,0.1c0.5,0.4,0.9,0.9,1.4,1.3
		c-3.1,2.1-7,3.6-10.6,2.1c-1.7-0.8-3.1-2.4-3.3-4.3c-0.7-5.1,0.4-10.4-0.7-15.4C523.8,81.5,522.5,80.8,521.3,80z"/>
	<path class="st0" d="M535.8,80.1c2.8-0.1,5.7-0.1,8.6-0.1c0.2,6.4-0.4,12.9,0.4,19.3c1.2,0.9,2.4,1.8,3.7,2.6
		c-2.5,0.2-4.9,0.5-7.4,0.9c-0.5-1.9-0.3-3.7,0.4-5.3c-0.6,0.4-1.7,1.1-2.2,1.5c1.8-5.5,1.4-11.3,1-16.9
		C538.8,81.3,537.3,80.7,535.8,80.1z"/>
	<path class="st0" d="M489.9,123.9c6-1.9,12.3,0.6,16.9,4.4c0.7-1.7,1.3-3.4,2.1-5.1c0.6,5.2,0.9,10.5,0.4,15.7
		c-1.5-3.3-2.2-6.9-4.4-9.8c-3.9-4.5-11.3-6-16.2-2.4c-4.8,3.4-6,9.7-6.1,15.2c-0.2,6,1.6,13,7.3,16.1c4.3,2.6,9.9,1.5,13.8-1.4
		c3.2-2.8,4-7.2,5.6-11c0.8,5,0.7,10.1,0.1,15.1c-0.8-1.6-1.6-3.2-2.4-4.8c-6.2,6.1-16.6,6.9-23.6,1.8
		C471.5,149.3,475.2,126.7,489.9,123.9z"/>
	<path class="st0" d="M371.7,124.6c2.6-0.2,5.2-0.5,7.7-0.9c0.1,11.6-0.4,23.2,0.3,34.8c1.4,0.5,2.9,1.1,4.3,1.6
		c-2.6,0.6-5.3,0.9-8,1.2c0-0.9-0.1-2.6-0.2-3.5c-3.4,2.3-7.5,4.7-11.7,3c-8.1-2.8-9.9-14.7-3.8-20.3c4.1-4.1,10.8-3.1,15.2-0.2
		c0-4.5,0-9-0.2-13.5c-1.2-0.3-2.5-0.6-3.7-1L371.7,124.6 M361.3,147.9c-0.2,3.9,0.5,8.6,4,10.8c3.4,2.2,7.9,0.3,10-2.8
		c0.5-4.7,0.1-9.4,0.2-14.1c-2.9-1.2-6.1-3.6-9.3-2C362.6,140.8,361.5,144.7,361.3,147.9z"/>
	<path class="st0" d="M408,124.8c2.7-0.3,5.5-0.7,8.2-1.2c0.2,11.8-0.4,23.5,0.3,35.3c0.9,0.1,2.6,0.2,3.4,0.2v1.2
		c-4.2-0.1-8.4,0.1-12.6-0.2c1.5-0.7,3.1-1.3,4.5-2.1c0.6-5,0.1-10,0.2-14.9c-0.1-5.2,0.4-10.5-0.3-15.7
		C410.6,126.5,409.3,125.7,408,124.8z"/>
	<path class="st0" d="M420.9,124.9c2.8-0.5,5.5-0.8,8.3-1.2c0,9.4,0,18.9,0,28.3c0,2.1,0,4.2,0.6,6.1c1.1,0.5,2.2,1,3.3,1.4l0,0.6
		c-4.3-0.1-8.5,0.2-12.8-0.3c1.6-0.5,3.2-1,4.8-1.5c0.4-10.5,0.5-21-0.1-31.5C423.6,126.3,422.2,125.6,420.9,124.9z"/>
	<path class="st0" d="M671.2,124.3c1.7-1.2,5.1-0.8,4.9,1.8c0.8,2.8-2.9,2.7-4.5,3.4C671.3,127.8,670.3,126,671.2,124.3z"/>
	<path class="st0" d="M263.4,136.6c5.1-1,10.7-0.9,15.5,1.6c8,3.8,13.3,12.8,12.4,21.7c-0.7,11.2-11,20.9-22.3,20.3
		c-11.5,0.6-22.3-9.7-22.1-21.2C246.1,148.8,253.6,139.1,263.4,136.6z"/>
	<path class="st0" d="M391.2,159.9c-8.1-4.3-7.4-17.9,0.9-21.5c2.8-0.8,5.9-0.9,8.6,0.1c3,1.2,4,4.6,5.2,7.4
		c-5.3,0.2-10.6,0.1-15.8,0.1c0.2,3.9-0.3,8.4,2.3,11.6c1.7,2.3,4.9,2.6,7.5,1.9c2.2-1.2,3.9-3.1,5.9-4.7
		C404.2,160.9,396.3,163,391.2,159.9 M390,144.6c3.8,0.2,7.7,0.2,11.5,0c-0.7-2.7-2-6.3-5.5-5.8C392.5,138.4,391.1,142.1,390,144.6z
		"/>
	<path class="st0" d="M440.5,138.5c3.1-1,6.4-0.9,9.5-0.4c1.9,0.4,3.8,1.9,4.1,3.9c0.8,5.7-0.5,11.6,0.9,17.3c2-0.6,3.2-2.2,4.7-3.5
		c-0.9,1.9-1.2,4.8-3.8,5.2c-2.7,0.9-4.4-1.5-6-3.1c-3.4,1.7-7.4,4.6-11.3,2.5c-3.3-1.3-3.2-6.2-0.6-8.2c3.7-3.2,8.4-4.7,12.8-6.7
		c-0.6-2-0.1-5-2.4-6c-2.1-1.3-4.6-0.3-6.8,0.2c-0.9,1.9-1.5,6-4.6,4.4C436.2,141.5,438.5,139.5,440.5,138.5 M441.1,153.2
		c-1.3,2.3,0,5.8,2.9,5.8c2.4-0.5,4.4-1.9,6.5-3.2c0-2.9,0-5.9,0-8.8C447.1,148.5,442.9,149.6,441.1,153.2z"/>
	<path class="st0" d="M517.1,140.3c2.6-3.2,7.2-2.7,10.8-2.4c2.5,0.1,5,1.9,5.4,4.5c0.8,5.5-0.2,11.1,0.7,16.5
		c2.2,0.3,3.3-2,4.8-3.2c-0.8,2.1-1.2,5-3.9,5.3c-2.6,0.8-4.2-1.6-5.8-3.2c-3.4,1.8-7.5,4.6-11.4,2.5c-3.2-1.4-3-6.1-0.6-8.1
		c3.6-3.2,8.4-4.7,12.8-6.6c0-3-1.1-7-4.9-6.7c-3.8-0.8-5,3.3-6.8,5.7C515.6,144.6,515.7,141.7,517.1,140.3 M520.2,153.3
		c-1.2,2.3,0,5.5,2.8,5.8c2.4-0.5,4.5-1.9,6.6-3.1c0-3,0-6,0.1-9C526.3,148.5,522,149.6,520.2,153.3z"/>
	<path class="st0" d="M539.6,138.9c2.6-0.4,5.1-0.8,7.7-1.2c0.2,1.2,0.3,2.5,0.5,3.7c2.6-2.1,5.6-4.2,9.2-3.6c2.8-0.3,4.6,2,6.1,4
		c3.4-4,10.8-6.2,14.4-1.4c1.5,5.7,0,11.6,1,17.3c1.2,1.1,2.7,1.6,4.1,2.4c-3.9,0.1-7.8,0.1-11.7,0.1l0-0.6c1.1-0.8,3.1-0.8,3.1-2.6
		c0.2-5.4,0.9-11.2-0.6-16.5c-2.8-1.6-6.5-1-8.6,1.4c-2.7,2.2-1.5,6-1.8,9c0.2,3.1-1,7.5,2.9,8.7l0.2,0.5c-3.7-0.1-7.5,0-11.2-0.1
		c1.3-0.7,2.6-1.5,3.9-2.3c0.5-4.6,0.3-9.3,0.2-13.9c0.1-2.2-1.7-4.5-4-4.2c-3-0.3-5.2,2.1-7.3,3.8c0.2,4.6-0.3,9.2,0.2,13.7
		c0.2,1.5,2.2,1.7,3.2,2.5l0.1,0.5c-3.9-0.1-7.9,0-11.8-0.1c1.2-1.1,4.1-1,4.1-3.1c0.3-5.2,0.3-10.5-0.1-15.7
		C542.3,140.3,540.9,139.7,539.6,138.9z"/>
	<path class="st0" d="M582.5,139.2c2.8-0.6,5.6-1.1,8.4-1.7c0.1,0.8,0.2,2.3,0.3,3.1c3.6-2.9,8.8-3.8,13.1-1.7
		c8,4.5,7,18.5-1.6,21.8c-3.9,1.7-8,0.1-11.4-2c0.1,4.3,0,8.6,0.2,12.9c1.4,0.7,2.9,1.4,4.3,2.1c-4.4,0.2-8.9,0.2-13.3,0
		c1.4-0.7,2.9-1.3,4.3-2.1c1-2.7,0.4-5.8,0.5-8.6c-0.2-7.3,0.4-14.6-0.3-21.8C585.5,140.4,584,139.8,582.5,139.2 M596.4,139.3
		c-2,0.8-5,2-5,4.6c-0.1,4.2-0.4,8.6,0.2,12.8c2.4,3.2,7.5,4.3,10.5,1.3c3.3-3.3,3.6-8.5,2.7-12.8
		C604,141.6,600.2,138.2,596.4,139.3z"/>
	<path class="st0" d="M615,144.2c-0.9-3.6,2.7-6.3,5.9-6.3c3.5-0.2,8.1-0.7,10.4,2.7c2,6.1-0.6,12.8,1.8,18.8
		c1.8-0.8,3.1-2.5,4.6-3.8c-0.7,2.3-1.6,5.6-4.7,5.5c-2.4,0.4-3.7-1.9-5.2-3.4c-2.5,1.3-5,2.9-7.8,3.3c-2.6,0.3-5.5-1.3-6.2-3.9
		c-0.5-2.5,1.3-4.5,3.1-5.9c3.5-2.5,7.5-3.9,11.4-5.7c-0.2-1.8-0.5-3.6-0.7-5.4c-2.3-1-4.8-1.3-7.3-1.3
		C618.8,140.7,618.4,145.3,615,144.2 M619,153.2c-1.1,1.9-0.3,4.2,1.2,5.6c3,0.6,5.5-1.6,8-2.9c0-3,0-6,0-9
		C625,148.6,620.7,149.6,619,153.2z"/>
	<path class="st0" d="M638.5,138.7c2.5-0.3,5.1-0.6,7.6-1.3c0.2,1.3,0.5,2.6,0.8,3.9c2.2-1.5,4.3-3.6,7.1-3.6
		c2.8-0.3,6.6,0.2,7.5,3.3c1.2,5.4-0.1,11.1,0.9,16.6c1,1.2,2.7,1.5,4,2.4c-4,0.1-8.1,0.1-12.1,0.1l0-0.6c0.8-0.3,2.5-1,3.3-1.4
		c1.1-5,0.6-10.3,0.4-15.3c0.1-2.3-2.5-3-3.9-4.3c-2.6,1.3-6.2,2.3-7.1,5.4c-0.5,4.8-0.2,9.8,0.2,14.6c0.8,0.1,2.4,0.4,3.2,0.6l0,1
		c-4,0-8,0-12-0.1c1.4-0.8,2.9-1.4,4.2-2.4c0.6-5.4,0.6-11,0-16.4C641.3,140.4,639.9,139.6,638.5,138.7z"/>
	<path class="st0" d="M666.8,139.4c3-0.7,6-1.2,9-1.8c0.2,6.8-0.4,13.5,0.3,20.3c1.2,0.6,2.4,1.3,3.6,1.8l0.1,0.5
		c-4.3,0-8.7,0.1-13-0.3c1.6-0.5,3.2-1,4.8-1.5c0.5-5.9,0.5-11.8-0.1-17.7C669.9,140.3,668.3,139.9,666.8,139.4z"/>
	<path class="st0" d="M685.1,144.6c-3.7-1.7,0.3-6,2.9-6.5c4-0.6,9.6-1.4,12.2,2.5c1.9,6.1-0.2,12.7,1.6,18.9c1.4-1,2.7-2.1,4-3.2
		c0.2,0.1,0.7,0.4,1,0.5c-1.4,1.5-2.5,3.9-4.8,4.1c-2.5,0.5-4-1.8-5.5-3.2c-3.5,1.8-7.8,4.7-11.6,2.3c-3.2-1.6-2.6-6.3-0.1-8.2
		c3.7-3.1,8.4-4.5,12.7-6.5c-0.4-1.6-0.6-3.2-1.1-4.7c-1.6-2.4-4.8-1.6-7.2-1.8C687.8,140.8,687.3,143.4,685.1,144.6 M687.6,153.5
		c-1.2,2.3,0.5,5.9,3.4,5.5c2.3-0.6,4.3-2,6.3-3.3c0-2.9-0.1-5.7-0.1-8.6C693.7,148.5,689.3,149.7,687.6,153.5z"/>
	<path class="st0" d="M363.7,182.7c5.6-0.5,11.3-0.5,16.9,0c-2.3,1.2-5.9,0.9-7,3.7c-2.2,5.8-3.6,11.8-5.5,17.7
		c-1.3,4.3-2.8,8.5-3.2,13c4.3,0.5,8.8,1,12.9-0.3c3.5-1.6,5.4-5.2,8-7.8c-0.8,3.4-1.9,6.7-3,9.9c-9.9,0-19.8,0.1-29.7-0.1
		c2.4-1.5,6.3-1.4,7-4.7c2.9-9.7,6.2-19.3,8.6-29.1C367,184.2,365.3,183.5,363.7,182.7z"/>
	<path class="st0" d="M417.8,182.6c1.4-1.9,3.6,0,4.3,1.5c-0.9,1.2-1.9,2.4-2.9,3.6C418.4,186.2,415.2,184.1,417.8,182.6z"/>
	<path class="st0" d="M451.5,187.5c-1.1-1.5-2.7-4.2-0.4-5.4c2-1.3,3.1,1.6,3.9,2.9C453.8,185.8,452.6,186.7,451.5,187.5z"/>
	<path class="st0" d="M475,182.9c5.5-0.8,11.1-0.6,16.6-0.2c-2.2,1.2-6.1,1.1-6.3,4.3c-0.8,8.5-1,17.1-1.2,25.6
		c5.1-7.8,10.5-15.4,15.6-23.2c0.6-1.4,2.4-3.3,0.6-4.6c-1.5-0.9-3.1-1.4-4.6-2.1c4.5-0.5,9.1-0.4,13.7-0.2
		c-2.8,1.7-5.8,3.4-7.6,6.3c-6.4,9.3-12.6,18.7-18.9,28.1c-1,1.6-2.6,2.7-4.1,3.8c0-12.1,2-24,1.6-36.1
		C478.5,184,476.7,183.5,475,182.9z"/>
	<path class="st0" d="M570.8,184.7c0.1-1.5,1.4-2.5,2.1-3.7c0.8,1.2,2.7,2,2.6,3.7c-0.7,1.1-1.7,2.1-2.5,3.1
		C572.2,186.8,571.5,185.8,570.8,184.7z"/>
	<path class="st0" d="M612.4,183.4c2.7-0.4,5.4-0.9,8.1-1.4c-3,10.7-6.5,21.3-9.7,32c-0.7,1.6-0.2,3.3,0.3,4.8
		c2.7-2,4.5-4.8,6.8-7.1c-1.3,3.5-3.4,8.4-7.9,8c-3,0.1-2.9-3.4-2.4-5.5c2.6-9.9,6.2-19.5,8.6-29.5
		C615,184.2,613.7,183.8,612.4,183.4z"/>
	<path class="st0" d="M625.3,183.5c2.8-0.5,5.7-1,8.5-1.7c-3.1,10.2-6.2,20.4-9.3,30.5c-0.7,2-0.9,4.2-1,6.3
		c3.4-1.4,5.3-4.6,7.6-7.2c-1.2,3.9-4.1,9.5-9.2,7.8c-2.4-2.1-1-5.3-0.5-7.9c2.6-9,5.7-17.9,8.1-27
		C628.5,184.2,626.4,183.8,625.3,183.5z"/>
	<path class="st0" d="M641.4,182.2c1.3-1.5,3.1,0.8,4,1.8c-0.5,1.3-1.4,2.3-2.5,3C640.4,186.7,638.8,183.7,641.4,182.2z"/>
	<path class="st0" d="M585.3,188.9c0.8,0,2.4,0,3.3,0c-0.8,2.7-1.5,5.3-2.5,7.9c1.6,0.3,3.2,0.5,4.8,0.9c-1.7,0.2-3.4,0.4-5.1,0.5
		c-1.9,6.5-4.5,12.9-5.4,19.6c4-0.5,5.1-5,7.8-7.3c-1.2,3.5-3,7.4-6.7,8.9c-2.2,0.9-4.7-0.9-4.1-3.3c0.9-6.2,3.5-12,5-18
		c-0.9,0-2.6-0.1-3.5-0.1l0-0.9c1.3,0,2.6,0,3.8,0C583.6,194.3,584.4,191.6,585.3,188.9z"/>
	<path class="st0" d="M390.6,196.4c1.7-1.4,4.5,0.3,4.1,2.4c-0.8,6.5-4.6,12.4-4.5,19c1.8,0,3.5-0.5,4.6-2
		c4.8-5.5,6.9-12.7,9.2-19.4c0.8,0,2.4,0.1,3.2,0.1c-2.1,7.2-5.1,14.2-6.5,21.6c2.9-1,4.6-3.6,6.7-5.6c-1,3.8-4.2,8.7-8.8,6.5
		c-0.4-2.2-0.1-4.5,0.1-6.8c-2.1,3.2-4.4,7.6-8.8,7.2c-2.3,0-3.7-2.5-3-4.5c1.1-6.1,4-11.7,4.6-17.8c-2.1,2-3.9,4.4-6,6.4
		C386.5,200.8,387.8,197.8,390.6,196.4z"/>
	<path class="st0" d="M408.4,203.3c1.5-3.4,4-7.4,8.2-7.4c1.2,1,2.6,2.2,2,4c-1.1,6.2-4.5,11.9-4.8,18.3c2.9-1.4,5-3.9,7.4-5.9
		c-1.4,2.6-2.9,5.5-5.7,6.9c-2.2,1.1-5.6-0.5-4.9-3.2c0.7-6.5,4.5-12.3,4.9-18.9C412.8,198.8,410.8,201.2,408.4,203.3z"/>
	<path class="st0" d="M430.6,196.7c2.2-1.5,4.7-0.3,6.9,0.4c1.2-0.5,2.5-1,3.7-1.5c0.8,1.2,1.6,2.5,2.5,3.7c1.5-1.7,3.4-4.1,5.9-3.2
		c1.1,0.9,1.7,2.4,1.4,3.8c-0.8,6.3-4.5,11.8-4.6,18.2c3-1.2,5-3.8,7.4-5.9c-1.5,3.1-3.6,7.2-7.6,7.3c-1.7,0.2-2.6-1.4-3.1-2.7
		c0.8-6.8,4.5-12.9,5.3-19.7c-2.8,1.6-5,4.1-7.1,6.4c0.3-0.7,0.9-2.2,1.2-2.9c-0.4-0.3-1.2-1-1.7-1.4l-0.6-0.5
		c-0.3-0.3-0.9-1-1.3-1.3c-0.2,4.7,1.2,10.9-3.7,13.8c-3.3,2.9-9.9,0.9-11.4,5.8c4.4,2.8,11,1.5,14.2,6.1c1.7,4-2.4,7-5.5,8.5
		c-0.7-0.5-1.4-1-2.1-1.5c2-0.5,4.9-1.3,4.6-4c0-2.5-3-2.7-4.8-3.4c-3.2-1.2-7.6-1.1-9.1-4.7c0.4-3.2,3.4-4.6,6-5.6
		C422.1,207.7,424.7,199.2,430.6,196.7 M430.5,199.4c-2.2,3.5-4.7,8.7-1.6,12.3c1.6,0.1,3.5,0.2,4.4-1.5c2.7-3.7,3.4-8.4,3-12.8
		C434.1,197.6,431.6,197.1,430.5,199.4z"/>
	<path class="st0" d="M497.5,211.4c1.4-7.5,7.3-15.1,15.3-15.7c-2.6,2.1-6,3.4-7.6,6.4c-2.4,4.2-5,8.8-4.6,13.8
		c0.6,3.4,4.6,1.6,6-0.2c3.9-4.6,6.5-10.7,6-16.8c0.8-0.8,1.6-1.6,2.4-2.4c0.8,0,2.3,0.1,3.1,0.1c-2.1,7.1-5.2,13.9-6.2,21.3
		c2.5-1.4,4.5-3.6,6.7-5.5c-1.7,3.1-3.9,7.7-8.2,7c-1.4-1.3-1.2-3.3-1.4-4.9c-2,2.3-4.4,5.5-7.9,5
		C497.6,218.9,496.9,214.4,497.5,211.4z"/>
	<path class="st0" d="M519.9,202.7c1.8-2.9,3.9-7.2,8-6.7c1.4,2.2,0.3,4.8,0.2,7.2c2-2.9,4.2-6.5,7.9-7.3c2.1-0.1,4.4,1.7,3.9,4
		c-0.7,6.4-4.2,12.1-5.1,18.5c2.6-1.4,4.7-3.5,7.1-5.3c-1.2,2-2.4,4.2-4.3,5.6c-1.8,1.3-4.4,1.2-5.8-0.6c0.1-7.1,5-13.2,5.2-20.3
		c-2.6-0.6-4.4,1.5-5.9,3.4c-4.1,5.3-6.1,11.8-7.9,18.2c-0.8,0-2.5-0.1-3.4-0.1c2-7.2,5-14.1,6.1-21.5
		C523.9,199.4,522,201.1,519.9,202.7z"/>
	<path class="st0" d="M546.3,196c1.9-0.2,3,1.9,4.3,2.9c1-1.3,2-2.6,3.1-3.8c-1.2,6.3-6.2,11.4-6.6,17.9c-0.3,1.9,0.3,4.9,2.8,4.8
		c4.3-0.8,6.4-5.4,7.9-9.1c1.9-4.5-0.3-9.1-0.1-13.7c2.8,1.2,3.6,4.2,2.9,6.9c-0.9,6.1-2.7,12.8-8.1,16.4c-2.8,1.9-8,1.6-8.6-2.4
		c-0.6-6,3.6-10.9,6.6-15.6c-1.5-0.4-2.9-0.8-4.4-1.2c-0.8,0.3-2.3,0.9-3,1.2C544.1,198.9,545.1,197.4,546.3,196z"/>
	<path class="st0" d="M562,203.4c1.5-3.1,3.5-6.4,7-7.5c2.1-0.2,3.5,2.2,3,4.1c-0.9,6.3-4.5,11.9-4.6,18.3c2.9-1.4,5-3.8,7.3-5.9
		c-1.5,3-3.3,6.7-7,7.2c-2.4,0.5-4.3-2.2-3.6-4.3c1.3-6.2,4.4-11.8,5.1-18.1C566.6,198.8,564.5,201.3,562,203.4z"/>
	<path class="st0" d="M593.8,201.9c2.3-2.8,5.3-5.9,9.1-5.9c1.8,0.9,2.9,2.9,2.1,5c-1.9,5.1-7.4,7.3-11.9,9.5
		c-0.1,2.4-0.4,4.8,0.3,7.1c4.8,1.8,7-3.9,10-6.5c-1.2,3-2.8,6.1-5.8,7.7c-2.6,1.4-6.5,1-7.8-1.9
		C588.4,211.7,590.7,206.1,593.8,201.9 M593.7,209c3.7-2.2,7.9-4.7,9.3-9.1c0.2-1.5-0.5-2.3-2-2.5
		C596.8,199.8,595.3,204.8,593.7,209z"/>
	<path class="st0" d="M631.4,203.4c1.7-3.3,4.1-7.4,8.3-7.4c1.4,0.8,2.3,2.3,1.9,3.9c-1,6.2-4.4,11.9-4.8,18.2
		c3.1-1.1,5-3.8,7.4-5.8c-1.3,2.9-3.1,6.2-6.4,7.2c-2.1,0.6-4.6-1.1-4.1-3.4c1-6.4,4.3-12.3,5.3-18.8
		C636,198.7,633.9,201.3,631.4,203.4z"/>
	<path class="st0" d="M417.3,227.6c-1.4-3.1,2.2-4.8,4.3-6.1c-0.2,2.2-2.2,4.5-1,6.7c2.6,3.2,7.2,1.6,10.4,3.8
		C426.4,231.7,419.9,232.5,417.3,227.6z"/>
</g>
</svg>
